<?xml version="1.0" encoding="utf-8"?>
<!-- Generator: Adobe Illustrator 24.3.0, SVG Export Plug-In . SVG Version: 6.00 Build 0)  -->
<svg version="1.1" id="Layer_1" xmlns="http://www.w3.org/2000/svg" xmlns:xlink="http://www.w3.org/1999/xlink" x="0px" y="0px"
	 viewBox="0 0 153 31" style="enable-background:new 0 0 153 31;" xml:space="preserve">
<style type="text/css">
	.st0{fill:#D5001C;}
	.st1{display:none;}
	.st2{display:inline;fill:#FFFFFF;}
	.st3{display:inline;}
</style>
<g id="MOTORSPORT">
	<g>
		<path d="M0.1,30l0.4-8.5h1.9l1.8,5.7l1.7-5.7h1.9L8.2,30H6.7l-0.3-5.6L4.6,30h-1l-1.8-5.6L1.6,30C1.6,30,0.1,30,0.1,30z"/>
		<path d="M9.6,25.7c0-3.5,0.8-4.4,3.3-4.4s3.3,0.9,3.3,4.4c0,3.4-0.6,4.4-3.3,4.4C10.3,30.2,9.6,29.1,9.6,25.7z M14.5,25.7
			c0-2.5-0.2-2.9-1.6-2.9s-1.6,0.4-1.6,2.9c0,2.8,0.2,3.1,1.6,3.1S14.5,28.5,14.5,25.7z"/>
		<path d="M17.3,21.5h6V23h-2.2v7.1h-1.6V23h-2.2C17.3,23,17.3,21.5,17.3,21.5z"/>
		<path d="M24.4,25.7c0-3.5,0.8-4.4,3.3-4.4s3.3,0.9,3.3,4.4c0,3.4-0.6,4.4-3.3,4.4C25,30.2,24.4,29.1,24.4,25.7z M29.2,25.7
			c0-2.5-0.2-2.9-1.6-2.9S26,23.2,26,25.7c0,2.8,0.2,3.1,1.6,3.1C29,28.8,29.2,28.5,29.2,25.7z"/>
		<path d="M32.5,21.5h3.1c1.8,0,2.6,0.6,2.6,2.7c0,1.6-0.5,2.3-1.4,2.5l1.7,3.2h-1.8l-1.5-3h-1v3h-1.6L32.5,21.5L32.5,21.5z
			 M34.2,23v2.7h1.2c0.8,0,1.1-0.1,1.1-1.4c0-1.2-0.3-1.3-1.2-1.3C35.3,23,34.2,23,34.2,23z"/>
		<path d="M41.1,27.4c0.1,1.1,0.3,1.5,1.3,1.5c0.9,0,1.2-0.3,1.2-1.1c0-0.7-0.3-0.9-1.2-1.1l-0.6-0.3c-1.5-0.4-2.2-1-2.2-2.6
			s0.7-2.5,2.8-2.5c2.2,0,2.8,0.9,2.9,2.8h-1.6c-0.1-1.1-0.3-1.3-1.2-1.3c-0.8,0-1.2,0.3-1.2,1c0,0.8,0.3,0.9,1.3,1.2l0.7,0.2
			c1.5,0.4,2.2,1.1,2.2,2.5c0,1.6-0.8,2.5-2.9,2.5c-2.1,0-2.8-0.8-2.9-2.8C39.7,27.4,41.1,27.4,41.1,27.4z"/>
		<path d="M46.8,21.5h3.1c1.8,0,2.5,0.7,2.5,2.7c0,2.2-0.8,2.8-2.6,2.8h-1.5v3h-1.5V21.5z M48.5,23v2.7h1.2c0.9,0,1.1-0.2,1.1-1.4
			c0-1.1-0.3-1.3-1.1-1.3C49.7,23,48.5,23,48.5,23z"/>
		<path d="M53.7,25.7c0-3.5,0.8-4.4,3.3-4.4s3.3,0.9,3.3,4.4c0,3.4-0.6,4.4-3.3,4.4C54.4,30.2,53.7,29.1,53.7,25.7z M58.6,25.7
			c0-2.5-0.2-2.9-1.6-2.9c-1.4,0-1.6,0.4-1.6,2.9c0,2.8,0.2,3.1,1.6,3.1S58.6,28.5,58.6,25.7z"/>
		<path d="M61.9,21.5H65c1.8,0,2.6,0.6,2.6,2.7c0,1.6-0.5,2.3-1.4,2.5l1.7,3.2h-1.8l-1.5-3h-1v3H62L61.9,21.5L61.9,21.5z M63.6,23
			v2.7h1.2c0.8,0,1.1-0.1,1.1-1.4c0-1.2-0.3-1.3-1.2-1.3C64.7,23,63.6,23,63.6,23z"/>
		<path d="M68.8,21.5h6V23h-2.2v7.1H71V23h-2.2V21.5z"/>
	</g>
</g>
<g id="line">
	<rect y="13.5" class="st0" width="152.5" height="2.5"/>
</g>
<g id="PORSCHE">
	<g>
		<polygon points="136.1,1.8 136.1,0.1 118,0.1 118,9.4 136.1,9.4 136.1,7.6 120,7.6 120,5.6 136.1,5.6 136.1,3.8 120,3.8 120,1.8 
					"/>
		<polygon points="113.5,3.8 101,3.8 101,0 99,0 99,9.3 101,9.3 101,5.8 113.5,5.8 113.5,9.3 115.5,9.3 115.5,0 113.5,0 		"/>
		<path d="M79.7,2.1v5.2c0,1.1,0.9,2,2,2l0,0h14.9v-2H82.1c-0.1,0-0.3-0.1-0.3-0.3V2.3C81.8,2.1,82,2,82.1,2h14.5V0H81.9
			C80.7,0,79.7,0.9,79.7,2.1L79.7,2.1z"/>
		<path d="M75.2,3.8H62.1l0,0c-0.2,0-0.3-0.1-0.3-0.3l0,0V2.1c0-0.2,0.1-0.3,0.3-0.3l0,0H77V0.1H61.8c-1.1,0-2,0.9-2,2v1.4
			c0,1.1,0.9,2,2,2h13.1c0.2,0,0.3,0.1,0.3,0.3l0,0l0,0v1.4c0,0.2-0.1,0.3-0.3,0.3l0,0H60v1.7h15.2c1.1,0,2-0.9,2-2l0,0V5.9
			C77.2,4.8,76.3,3.8,75.2,3.8L75.2,3.8z"/>
		<path d="M57.4,4.1v-2c0-1.1-0.9-2-2-2H39.7v9.3h2V6.9h11.4c1.1,0,2,0.9,2,2v0.4h2v0c0.1-1.3-0.7-2.5-1.9-3.1
			C56.5,6.1,57.4,5.2,57.4,4.1z M55,4.8H41.8V2.1h13.1c0.2,0,0.3,0.1,0.3,0.3l0.1,2.1C55.3,4.7,55.2,4.8,55,4.8z"/>
		<path d="M35.3,0H22.1c-1.1,0-2,0.9-2.1,2v5.2c0,1.1,0.9,2,2,2h13.1c1.1,0,2-0.9,2-2V2.1C37.3,0.9,36.4,0,35.3,0z M34.9,7.3H22.4
			c-0.1,0-0.3-0.1-0.3-0.3V2.3c0-0.2,0.2-0.3,0.3-0.3h12.4c0.2,0,0.3,0.1,0.3,0.3l0.1,4.6C35.3,7.1,35.1,7.3,34.9,7.3z"/>
		<path d="M15.6,0H0.1v9.3h2V6.9h13.4c1.1,0,2-0.9,2-2V2.1C17.6,0.9,16.7,0,15.6,0z M15.6,4.5c0,0.2-0.1,0.3-0.3,0.3H2.2V2.1h13.1
			c0.2,0,0.3,0.1,0.3,0.3V4.5z"/>
	</g>
</g>
<g id="old" class="st1">
	<rect y="0.3" class="st2" width="153" height="30.4"/>
	<g id="Symbols" class="st3">
		<g id="MenuBarDesktop" transform="translate(-18.000000, -35.000000)">
			
				<image style="overflow:visible;enable-background:new    ;" width="537" height="108" id="Porsche_Motorsport_rgb" xlink:href="76AEC80BDEB0446.png"  transform="matrix(0.2848 0 0 0.2848 18.033 35.1211)">
			</image>
		</g>
	</g>
</g>
</svg>
